<?xml version="1.0" encoding="utf-8"?>
<!-- Generator: Adobe Illustrator 24.0.1, SVG Export Plug-In . SVG Version: 6.00 Build 0)  -->
<svg version="1.1" id="Layer_1" xmlns="http://www.w3.org/2000/svg" xmlns:xlink="http://www.w3.org/1999/xlink" x="0px" y="0px"
	 viewBox="0 0 199 195.33" style="enable-background:new 0 0 199 195.33;" xml:space="preserve">
<style type="text/css">
	.Arched_x0020_Green{fill:url(#SVGID_1_);stroke:#FFFFFF;stroke-width:0.25;stroke-miterlimit:1;}
	.st0{fill:#373839;}
	.st1{fill:#E65A00;}
	.st2{fill:none;}
</style>
<linearGradient id="SVGID_1_" gradientUnits="userSpaceOnUse" x1="-2948.5" y1="1589.5498" x2="-2947.793" y2="1588.8427">
	<stop  offset="0" style="stop-color:#34A330"/>
	<stop  offset="0.9831" style="stop-color:#1B3710"/>
</linearGradient>
<g>
	<g>
		<g>
			<path class="st0" d="M139.8,50.91c-0.08-0.15-0.11-0.3-0.19-0.45c-0.71,0-1.43,0-2.18,0c-34.17,0-64.54,16.23-83.69,41.36
				c0.41,0.67,0.83,1.3,1.28,1.94c-7.55,10.31-13.25,22.04-16.59,34.69c0.04-0.07,0.07-0.15,0.11-0.22
				c4.39-11.58,10.81-22.15,18.81-31.34c17.53-20.14,42.76-33.54,71.15-35.74l-1.43,13.21c-25.64,0.37-49,10.12-66.68,25.98
				c8.71,8.9,20.91,14.41,34.39,14.41c22,0,40.55-14.7,46.18-34.77v-0.04l0.04-0.22h0.04c0.04-0.22,0.11-0.45,0.15-0.63l0.11-0.41
				c0.04-0.22,0.11-0.41,0.15-0.63l0.11-0.45c0.04-0.19,0.08-0.37,0.11-0.56c0.04-0.19,0.07-0.37,0.11-0.56l0.07-0.37
				c0.04-0.22,0.08-0.48,0.11-0.71l0.04-0.19c0.45-2.57,0.68-5.25,0.68-7.97c0-2.12-0.15-4.21-0.41-6.25
				C141.83,57.5,140.96,54.12,139.8,50.91z"/>
			<path class="st1" d="M127.22,32.3c-8.56-7.78-19.94-12.54-32.44-12.54c-26.47,0-47.91,21.25-47.91,47.5c0,7,1.5,13.59,4.24,19.58
				c-3.9,6.55-7.21,13.55-9.72,20.88c2.85-6.81,6.38-13.25,10.48-19.32c17.98-26.8,46.97-45.75,80.57-50.51
				c5.11-0.71,10.29-1.12,15.58-1.15l-0.41,8.6l3.38-8.6l2.78-7c-0.64,0-1.31,0-1.95,0C143.36,29.73,135.14,30.59,127.22,32.3z"/>
		</g>
		<g>
			<g>
				<path class="st0" d="M16.92,150.7h23.96v-5.84H16.92v-3.35c0-1.3,1.09-2.36,2.4-2.36H41.9v-5.86H19.32
					c-4.55,0-8.28,3.7-8.28,8.21v17.44h5.89V150.7z"/>
				<path class="st0" d="M99.05,151.09c0-1.83-0.64-3.57-1.78-4.95c1.13-1.41,1.78-3.15,1.78-4.95c0-4.34-3.58-7.88-7.95-7.88H68.16
					v25.65H91.1C95.47,158.96,99.05,155.43,99.05,151.09z M74.06,139.16H91.1c1.13,0,2.04,0.9,2.04,2.03c0,1.12-0.91,2.03-2.04,2.03
					H74.06V139.16z M74.06,149.05H91.1c1.13,0,2.04,0.92,2.04,2.05c0,1.12-0.91,2.03-2.04,2.03H74.06V149.05z"/>
				<path class="st0" d="M109.22,143.89v4.47c0,5.84,4.82,10.59,10.68,10.59h20.19v-5.84H119.9c-2.38,0-4.4-1.76-4.73-4.07h24.92
					v-5.84h-24.92c0.33-2.29,2.35-4.05,4.73-4.05h20.19v-5.86H119.9C114.04,133.3,109.22,138.08,109.22,143.89z"/>
				<path class="st0" d="M181.16,142.13c0-4.87-4-8.83-8.88-8.83h-21.99v25.65h5.89v-8.02h16.1c1.64,0,3,1.34,3,2.97v5.04h5.89
					v-5.04c0-2.2-0.82-4.29-2.29-5.9C180.33,146.4,181.16,144.31,181.16,142.13z M172.27,145.1h-16.1v-5.95h16.1
					c1.64,0,3,1.32,3,2.97C175.27,143.76,173.92,145.1,172.27,145.1z"/>
				<rect x="52.1" y="133.3" class="st0" width="5.89" height="25.65"/>
			</g>
			<g>
				<path class="st1" d="M19.21,168.16h-0.42v2.97l-6.8-2.97c-0.31,0-0.64,0-0.96,0v0.4v6.43v0.4h0.4h0.13h0.42v-0.4v-5.79l6.8,2.95
					v3.24h0.42h0.11h0.4v-0.4v-6.43v-0.4h-0.4H19.21z"/>
				<polygon class="st1" points="37.33,168.62 37.33,169.06 37.33,171.3 37.33,172.23 37.33,174.47 37.33,175.38 38.26,175.38 
					46.01,175.38 46.01,174.47 38.26,174.47 38.26,172.23 46.01,172.23 46.01,171.3 38.26,171.3 38.26,169.06 46.01,169.06 
					46.01,168.16 37.33,168.16 				"/>
				<path class="st1" d="M177.29,171.79l3.84-3.06l-0.58-0.77l-4.2,3.35h-3.38v-2.77v-0.37h-0.42h-0.11h-0.42v0.37v6.45v0.4h0.42
					h0.11h0.42v-0.4v-2.77h3.38l4,3.19v-0.02l0.24,0.2l0.04-0.04l0.04-0.09l0.07-0.07l0.07-0.07l0.04-0.09
					c0.02-0.02,0.04-0.04,0.07-0.07l0.04-0.09l0.07-0.07l0.04-0.09l0.07-0.07l-0.53-0.42L177.29,171.79z"/>
				<path class="st1" d="M145.71,175.38h0.47h0.02h0.02h0.02h0.02h0.02h0.02h0.02h0.02h0.02h0.02h0.02h0.02h0.02h0.02h0.02h0.02
					h0.02h0.02h0.02h0.02h0.02h0.02v-0.4v-1.19v-1.56h5.09l0.4,0.99h-0.02l0.87,2.16h0.31h0.09h0.6l-0.18-0.44l-1.07-2.71h0.6h0.16
					h0.93v-0.4v-3.28v-0.4h-8.73V175.38z M146.64,169.06h6.86v2.25h-6.86V169.06z"/>
				<polygon class="st1" points="98.6,174.03 96.23,168.16 95.52,168.16 93.14,174.03 90.76,168.16 89.77,168.16 92.7,175.38 
					93.61,175.38 95.85,169.81 98.09,175.38 99.05,175.38 101.98,168.16 100.98,168.16 				"/>
				<polygon class="st1" points="67.51,168.16 63.63,168.16 63.63,169.06 67.51,169.06 67.51,175.38 68.44,175.38 68.44,169.06 
					72.33,169.06 72.33,168.16 68.44,168.16 				"/>
				<path class="st1" d="M127.17,168.16h-6.82h-0.58h-0.38v0.4v0.53v5.37v0.64v0.29h0.27h8.04h0.42V175v-0.55v-5.37v-0.64v-0.29
					h-0.42H127.17z M127.17,174.45h-6.82v-5.37h6.82V174.45z"/>
			</g>
		</g>
	</g>
	<g>
		<g>
			<path class="st0" d="M182.99,131.07c0.3-0.05,0.74-0.09,1.2-0.09c0.62,0,1.05,0.1,1.34,0.35c0.24,0.2,0.37,0.5,0.37,0.87
				c0,0.56-0.38,0.94-0.79,1.09v0.02c0.31,0.12,0.5,0.42,0.61,0.84c0.14,0.54,0.25,1.04,0.34,1.21h-0.82
				c-0.06-0.13-0.17-0.48-0.29-1.02c-0.12-0.57-0.33-0.75-0.78-0.76h-0.4v1.78h-0.78V131.07z M183.77,132.99h0.47
				c0.53,0,0.87-0.28,0.87-0.71c0-0.48-0.33-0.7-0.85-0.7c-0.25,0-0.41,0.02-0.49,0.04V132.99z"/>
		</g>
		<path class="st0" d="M187.71,133.3h-0.25c0,0.85-0.35,1.62-0.91,2.18c-0.56,0.56-1.33,0.9-2.18,0.9c-0.85,0-1.62-0.35-2.18-0.9
			c-0.56-0.56-0.9-1.33-0.9-2.18c0-0.85,0.35-1.62,0.9-2.18c0.56-0.56,1.33-0.9,2.18-0.9c0.85,0,1.62,0.35,2.18,0.9
			c0.56,0.56,0.9,1.33,0.91,2.18H187.71h0.25c0-1.99-1.61-3.59-3.59-3.59c-1.99,0-3.59,1.61-3.59,3.59c0,1.99,1.61,3.59,3.59,3.59
			c1.99,0,3.59-1.61,3.59-3.59H187.71z"/>
	</g>
</g>
</svg>
